<svg xmlns="http://www.w3.org/2000/svg" viewBox="0 0 1000 1000" role="img" aria-labelledby="title desc">
  <title id="title">GON elegant triad - Steel Bone Bronze</title>
  <desc id="desc">GON logo with Steel background, Bone mark and Bronze accents.</desc>
  <defs>
    <linearGradient id="steel" x1="0" y1="0" x2="1" y2="1">
      <stop offset="0" stop-color="#3A3F4D"/>
      <stop offset="1" stop-color="#1C223A"/>
    </linearGradient>
  </defs>
  <rect width="1000" height="1000" fill="url(#steel)"/>
  <circle cx="500" cy="500" r="488" fill="none" stroke="#C9A87A" stroke-width="8"/>
  <circle cx="500" cy="500" r="438" fill="none" stroke="#C9A87A" stroke-width="2" opacity="0.42"/>
  <g style="--logo-fg: #E5D4B6" >
    <g transform="translate(21.5 20) scale(1.175)">
    <g transform="translate(-82.096261 908.543383) scale(0.1 -0.1)" fill="var(--logo-fg, currentColor)">
      <path d="M4639 9080 c-864 -64 -1632 -362 -2289 -886 -147 -118 -462 -426 -582 -569 -522 -626 -816 -1325 -928 -2209 -19 -147 -21 -204 -17 -464 3 -270 7 -317 36 -512 50 -336 113 -590 212 -855 201 -541 498 -1007 909 -1429 508 -522 1054 -852 1760 -1065 218 -65 582 -135 839 -161 307 -30 755 1 1143 81 904 184 1704 668 2313 1396 233 279 491 713 633 1063 395 981 399 2062 10 3040 -303 763 -847 1433 -1538 1895 -561 374 -1127 577 -1850 660 -166 19 -495 27 -651 15z m56 -767 c8 -148 2 -497 -10 -525 -4 -11 -24 -18 -68 -23 -123 -13 -345 -55 -468 -89 -353 -97 -702 -275 -989 -503 -116 -93 -322 -298 -414 -413 -300 -376 -509 -840 -587 -1305 -27 -159 -35 -439 -20 -626 14 -167 37 -348 45 -356 6 -7 107 48 326 177 190 111 734 427 1185 687 l310 179 3 332 c1 183 0 332 -3 332 -21 0 -241 -125 -797 -454 -353 -208 -532 -305 -544 -294 -13 14 16 151 62 288 99 298 330 691 456 778 24 16 104 63 180 105 75 42 270 154 435 250 399 233 765 443 835 478 l58 29 0 -1120 0 -1120 -68 -34 c-89 -45 -427 -237 -782 -446 -250 -147 -1557 -906 -1854 -1077 -117 -67 -173 -90 -185 -77 -5 5 -18 38 -31 74 -13 36 -44 110 -68 165 -67 152 -100 247 -137 390 -222 855 -135 1680 259 2460 191 378 360 610 653 896 349 340 761 604 1201 771 294 110 712 203 938 207 l72 1 7 -137z m606 127 c708 -71 1471 -442 2010 -980 193 -193 298 -321 454 -555 306 -460 474 -927 547 -1525 20 -161 16 -612 -6 -785 -48 -379 -140 -704 -295 -1038 l-40 -88 -73 37 c-40 20 -120 65 -178 99 -58 35 -647 376 -1310 758 -663 383 -1231 711 -1262 731 l-58 35 0 1661 0 1660 54 0 c30 0 100 -5 157 -10z m-316 -3722 c39 -23 259 -150 490 -283 380 -219 420 -245 417 -266 -4 -32 -142 -356 -430 -1004 -266 -602 -382 -867 -382 -879 0 -21 215 45 430 131 502 201 1033 594 1361 1008 53 66 103 126 113 134 21 18 40 10 296 -137 360 -205 470 -272 470 -288 0 -84 -292 -430 -589 -701 -134 -121 -358 -287 -511 -378 -220 -130 -558 -279 -795 -349 -522 -154 -1105 -183 -1630 -80 -276 54 -657 177 -716 230 -11 9 -19 29 -19 43 0 30 -10 4 323 776 277 643 383 902 375 911 -9 8 -42 -11 -358 -199 -793 -473 -1395 -817 -1432 -817 -22 0 -352 410 -389 482 l-19 37 30 25 c17 14 77 51 133 82 115 64 1359 785 1687 978 661 390 1026 594 1050 589 14 -2 57 -23 95 -45z"/>
      <path d="M5742 6587 l3 -1082 155 -91 c631 -370 1542 -895 1642 -945 l77 -38 5 27 c44 213 57 729 23 957 -51 340 -131 596 -273 876 -159 314 -410 625 -702 870 -235 199 -674 447 -870 493 l-62 14 2 -1081z"/>
    </g>
  </g>
  </g>
</svg>
